<?xml version="1.0" standalone="no"?>
<!DOCTYPE svg PUBLIC "-//W3C//DTD SVG 20010904//EN"
 "http://www.w3.org/TR/2001/REC-SVG-20010904/DTD/svg10.dtd">
<svg version="1.0" xmlns="http://www.w3.org/2000/svg"
 width="348.000000pt" height="348.000000pt" viewBox="0 0 348.000000 348.000000"
 preserveAspectRatio="xMidYMid meet">
<metadata>
Created by potrace 1.14, written by Peter Selinger 2001-2017
</metadata>
<g transform="translate(0.000000,348.000000) scale(0.100000,-0.100000)"
fill="#000000" stroke="none">
<path d="M1215 3198 c-57 -21 -118 -73 -212 -186 -110 -131 -149 -160 -313
-226 -244 -100 -289 -159 -305 -403 -13 -198 -26 -234 -154 -442 -52 -85 -81
-161 -81 -212 0 -56 40 -153 111 -267 41 -64 82 -141 91 -170 10 -29 23 -112
29 -185 23 -291 53 -334 310 -440 150 -62 189 -87 261 -169 35 -40 97 -107
138 -149 119 -121 185 -132 415 -73 151 39 247 38 415 -4 151 -39 216 -40 285
-8 68 32 101 61 201 181 103 125 152 160 309 223 249 101 286 149 306 407 16
206 24 231 120 381 143 224 145 310 13 521 -109 173 -117 195 -133 398 -21
263 -58 311 -325 419 -128 51 -167 77 -243 163 -146 164 -187 203 -236 228
-71 35 -153 34 -315 -6 -165 -41 -230 -41 -398 -1 -136 33 -233 40 -289 20z
m-94 -1222 c63 -23 122 -76 150 -134 19 -37 24 -63 23 -127 0 -131 -53 -220
-158 -267 -46 -20 -70 -23 -233 -26 -128 -3 -183 -1 -183 7 0 6 9 11 19 11 11
0 27 7 35 16 14 14 16 48 14 257 l-3 242 -32 16 c-18 9 -29 20 -25 24 4 4 84
5 177 2 123 -3 183 -9 216 -21z m560 -14 c19 -21 85 -102 148 -180 63 -78 118
-142 123 -142 12 0 10 264 -2 295 -6 15 -22 30 -40 36 -52 19 -33 29 54 29 84
0 121 -13 71 -26 -14 -3 -30 -14 -35 -24 -6 -11 -10 -131 -10 -284 0 -146 -4
-266 -8 -266 -8 0 -234 270 -352 418 -18 23 -37 42 -42 42 -12 0 -10 -343 2
-375 6 -15 23 -32 40 -38 51 -20 33 -27 -65 -27 -57 0 -95 4 -95 10 0 6 9 10
20 10 11 0 29 9 40 20 19 19 20 33 20 239 l0 219 -39 35 c-22 19 -37 38 -33
41 3 3 42 6 88 6 l82 0 33 -38z m888 27 c56 -10 72 -18 105 -51 36 -36 38 -41
33 -84 -6 -53 -34 -88 -83 -104 -36 -12 -46 -30 -17 -30 33 0 100 -49 118 -86
34 -72 3 -142 -81 -184 -46 -24 -60 -25 -238 -28 -135 -3 -186 -1 -182 7 4 6
14 11 23 11 9 0 25 7 35 17 16 15 18 36 18 245 0 133 -4 237 -10 248 -5 10
-23 21 -40 25 -17 4 -28 11 -24 16 8 13 265 11 343 -2z"/>
<path d="M942 1962 c-9 -7 -12 -65 -10 -258 l3 -249 50 -3 c63 -3 106 21 137
80 20 38 23 57 23 168 0 115 -2 130 -26 175 -14 28 -40 60 -59 73 -33 22 -93
29 -118 14z"/>
<path d="M2442 1958 c-8 -8 -12 -48 -12 -115 l0 -103 35 0 c73 0 105 37 105
122 0 44 -22 93 -45 102 -27 10 -70 7 -83 -6z"/>
<path d="M2430 1595 c0 -102 2 -117 20 -135 24 -24 41 -25 85 -4 43 20 59 59
53 135 -4 54 -8 66 -36 90 -25 23 -42 29 -77 29 l-45 0 0 -115z"/>
</g>
</svg>
